<svg version="1.1" id="Layer_1" xmlns="http://www.w3.org/2000/svg" xmlns:xlink="http://www.w3.org/1999/xlink" x="0px" y="0px"
	 width="100%" viewBox="0 0 1920 1080" enable-background="new 0 0 1920 1080" xml:space="preserve">
<path fill="#FFFFFF" opacity="1.000000" stroke="none" 
	d="
M1.000000,432.000000 
	C1.000000,288.354614 1.000000,144.709244 1.000000,1.031932 
	C640.883850,1.031932 1280.767700,1.031932 1921.000000,1.031932 
	C1921.000000,144.362518 1921.000000,287.725311 1920.544067,431.546326 
	C1280.392090,432.003021 640.696045,432.001495 1.000000,432.000000 
z"/>
<path fill="#B1B1B1" opacity="1.000000" stroke="none" 
	d="
M1.000000,432.455933 
	C640.696045,432.001495 1280.392090,432.003021 1920.544067,432.002258 
	C1921.000000,571.362732 1921.000000,710.725403 1920.566162,850.542175 
	C1903.067383,850.330811 1886.006470,849.516907 1868.936279,849.040283 
	C1850.666382,848.530273 1832.373291,848.677246 1814.116699,847.910889 
	C1796.299194,847.162964 1779.257568,842.197693 1763.384399,834.449829 
	C1748.144165,827.010864 1733.485352,818.287659 1718.981567,809.454773 
	C1698.604980,797.045105 1678.681274,783.893799 1658.394287,771.333313 
	C1653.572021,768.347656 1648.077026,766.448364 1642.595215,763.910217 
	C1640.593018,762.768127 1638.887085,761.765198 1637.103271,760.440430 
	C1626.868286,750.850830 1617.018555,741.216187 1606.485352,732.398132 
	C1588.889526,717.667358 1570.063110,704.559204 1549.860352,693.649841 
	C1537.490601,686.970215 1524.930908,680.356201 1511.815186,675.415649 
	C1495.300903,669.194946 1478.286987,664.395264 1460.683960,661.550781 
	C1437.267700,657.766846 1414.002441,658.288452 1390.883911,662.401733 
	C1369.749023,666.162109 1349.473633,673.240967 1329.922241,682.118408 
	C1304.446045,693.686096 1280.583130,708.190491 1258.149780,724.765930 
	C1234.426636,742.294434 1211.566528,760.992798 1188.396240,779.264954 
	C1185.990112,781.162476 1184.037720,783.635193 1181.581055,785.884583 
	C1180.893677,785.970215 1180.500000,786.012390 1179.704346,785.994202 
	C1167.654907,782.366394 1155.916992,779.066345 1144.383667,775.162170 
	C1130.632324,770.507080 1117.957031,763.499084 1105.546021,756.050354 
	C1099.776123,752.587463 1094.218872,748.766846 1088.416870,745.361267 
	C1081.309082,741.189453 1074.125977,737.130432 1066.831665,733.296021 
	C1055.017822,727.085938 1043.412842,720.301697 1031.103516,715.265991 
	C1021.021912,711.141541 1010.085022,709.039978 999.438843,706.398315 
	C995.466980,705.412781 991.168457,704.715271 987.150024,705.136536 
	C974.580994,706.454163 961.651672,706.911072 949.643555,710.395142 
	C931.955994,715.527039 914.465210,721.956543 897.771301,729.725586 
	C879.884583,738.049683 862.866150,748.303284 845.749878,758.200989 
	C829.238586,767.748779 813.018311,777.807373 796.796326,787.845520 
	C782.880920,796.456360 769.351318,805.706909 755.265015,814.020447 
	C743.069031,821.218384 730.303345,827.447327 717.874512,834.259705 
	C716.617371,834.948669 715.947021,836.708069 714.646118,837.966553 
	C713.577576,837.879333 712.867249,837.796387 712.046997,837.406616 
	C710.786926,836.164856 709.714600,835.108765 708.475159,834.313110 
	C692.969604,824.359924 677.226013,814.760803 661.966492,804.445068 
	C639.304382,789.125244 617.156372,773.043762 594.463440,757.770996 
	C571.632019,742.405029 548.558350,727.384399 525.305908,712.662415 
	C497.540375,695.082764 467.859741,681.390991 436.750549,670.818359 
	C410.125305,661.769714 382.821960,655.692749 354.834045,652.978455 
	C338.014984,651.347412 321.157623,649.640930 304.284058,649.171814 
	C286.679962,648.682434 269.022095,649.320190 251.414032,650.076782 
	C240.180374,650.559509 228.910492,651.620544 217.806152,653.369995 
	C199.610672,656.236511 181.667816,660.646484 165.166443,669.006653 
	C151.896347,675.729675 138.496872,682.676453 126.546158,691.424683 
	C101.672859,709.632568 77.981026,729.446594 53.297791,747.924744 
	C37.465546,759.776917 20.210714,769.412598 1.000000,775.000000 
	C1.000000,660.970642 1.000000,546.941284 1.000000,432.455933 
z"/>
<path fill="#FFFFFF" opacity="1.000000" stroke="none" 
	d="
M1180.106323,786.054565 
	C1180.500000,786.012390 1180.893677,785.970215 1181.991455,785.962402 
	C1196.317261,787.653992 1209.902222,789.852905 1223.573364,790.783386 
	C1233.134521,791.434204 1242.853394,790.797424 1252.432007,789.948669 
	C1272.207642,788.196350 1292.075684,786.781982 1311.647949,783.628296 
	C1334.014160,780.024353 1356.121094,774.779968 1378.300903,770.061523 
	C1396.273682,766.238220 1414.138672,761.898132 1432.142456,758.235474 
	C1447.050293,755.202698 1462.033447,752.420227 1477.089111,750.268555 
	C1492.642822,748.045837 1508.292358,746.273499 1523.960693,745.150330 
	C1534.994995,744.359375 1546.187012,744.272034 1557.207642,745.145447 
	C1572.684448,746.371948 1588.204346,748.055237 1603.446167,750.922607 
	C1614.902832,753.077942 1625.951172,757.403137 1637.181274,760.762329 
	C1638.887085,761.765198 1640.593018,762.768127 1642.664795,764.244263 
	C1644.566772,766.195007 1646.145752,767.630676 1647.632568,769.156128 
	C1672.147827,794.307739 1696.385010,819.737793 1721.248657,844.539795 
	C1738.654907,861.902771 1756.072998,879.429993 1775.001465,895.046448 
	C1799.335083,915.122009 1827.206177,920.934143 1857.441650,908.634277 
	C1879.917358,899.490967 1897.253540,883.639709 1913.060791,865.815186 
	C1915.684448,862.856689 1918.352417,859.937378 1921.000000,857.000000 
	C1921.000000,931.651978 1921.000000,1006.303955 1921.000000,1080.958252 
	C1281.000000,1080.960693 641.000000,1080.960693 1.000000,1080.960693 
	C1.000000,1076.255981 1.000000,1071.590332 1.374821,1066.423828 
	C14.200309,1060.103516 27.219179,1055.232056 38.944656,1048.202881 
	C51.099792,1040.916382 62.530830,1032.153809 73.291664,1022.890381 
	C82.660530,1014.825317 91.131783,1005.564392 99.109879,996.083130 
	C106.019325,987.872009 112.098557,978.872437 117.809364,969.760376 
	C131.807587,947.425354 144.780792,924.427429 159.307205,902.450195 
	C171.935165,883.345215 190.172913,870.035889 210.488403,859.886597 
	C235.469849,847.406250 262.407562,841.762939 290.040558,840.204346 
	C313.262390,838.894531 336.591553,839.623657 359.625916,843.258850 
	C377.266388,846.042908 394.783936,849.673340 412.277039,853.307861 
	C440.316833,859.133728 468.223358,865.619690 496.320435,871.144104 
	C511.551117,874.138794 527.001648,876.897522 542.456421,877.656738 
	C563.811951,878.705811 585.248352,878.789246 606.578918,875.190125 
	C644.023010,868.872192 678.877991,855.594543 712.156982,837.713379 
	C712.867249,837.796387 713.577576,837.879333 714.839233,838.246094 
	C732.322632,847.380493 749.036865,856.683228 766.241516,864.967468 
	C787.780029,875.338684 810.215515,883.755249 833.672974,888.423279 
	C852.920227,892.253540 872.544983,894.187439 892.233093,897.222534 
	C893.976990,897.368286 895.490173,897.253479 897.422546,897.143066 
	C900.635498,897.390076 903.433105,897.875549 906.222229,897.830750 
	C915.482483,897.682007 924.739685,897.342285 934.197876,897.303223 
	C935.263550,897.328735 936.129395,897.126892 937.444275,896.924927 
	C943.354980,896.599854 948.931213,896.869690 954.257629,895.843140 
	C973.390015,892.155884 992.720093,889.035095 1011.435059,883.776672 
	C1028.733887,878.915894 1045.661865,872.330383 1062.170898,865.163269 
	C1084.161743,855.616272 1104.790527,843.363708 1124.020874,828.986389 
	C1142.875854,814.889648 1161.423706,800.381958 1180.106323,786.054565 
z"/>
<path fill="#D9D9D9" opacity="1.000000" stroke="none" 
	d="
M712.046997,837.406616 
	C678.877991,855.594543 644.023010,868.872192 606.578918,875.190125 
	C585.248352,878.789246 563.811951,878.705811 542.456421,877.656738 
	C527.001648,876.897522 511.551117,874.138794 496.320435,871.144104 
	C468.223358,865.619690 440.316833,859.133728 412.277039,853.307861 
	C394.783936,849.673340 377.266388,846.042908 359.625916,843.258850 
	C336.591553,839.623657 313.262390,838.894531 290.040558,840.204346 
	C262.407562,841.762939 235.469849,847.406250 210.488403,859.886597 
	C190.172913,870.035889 171.935165,883.345215 159.307205,902.450195 
	C144.780792,924.427429 131.807587,947.425354 117.809364,969.760376 
	C112.098557,978.872437 106.019325,987.872009 99.109879,996.083130 
	C91.131783,1005.564392 82.660530,1014.825317 73.291664,1022.890381 
	C62.530830,1032.153809 51.099792,1040.916382 38.944656,1048.202881 
	C27.219179,1055.232056 14.200309,1060.103516 1.374821,1065.961426 
	C1.000000,969.312439 1.000000,872.624878 1.000000,775.468628 
	C20.210714,769.412598 37.465546,759.776917 53.297791,747.924744 
	C77.981026,729.446594 101.672859,709.632568 126.546158,691.424683 
	C138.496872,682.676453 151.896347,675.729675 165.166443,669.006653 
	C181.667816,660.646484 199.610672,656.236511 217.806152,653.369995 
	C228.910492,651.620544 240.180374,650.559509 251.414032,650.076782 
	C269.022095,649.320190 286.679962,648.682434 304.284058,649.171814 
	C321.157623,649.640930 338.014984,651.347412 354.834045,652.978455 
	C382.821960,655.692749 410.125305,661.769714 436.750549,670.818359 
	C467.859741,681.390991 497.540375,695.082764 525.305908,712.662415 
	C548.558350,727.384399 571.632019,742.405029 594.463440,757.770996 
	C617.156372,773.043762 639.304382,789.125244 661.966492,804.445068 
	C677.226013,814.760803 692.969604,824.359924 708.475159,834.313110 
	C709.714600,835.108765 710.786926,836.164856 712.046997,837.406616 
z"/>
<path fill="#B9B9B9" opacity="1.000000" stroke="none" 
	d="
M1921.000000,856.571533 
	C1918.352417,859.937378 1915.684448,862.856689 1913.060791,865.815186 
	C1897.253540,883.639709 1879.917358,899.490967 1857.441650,908.634277 
	C1827.206177,920.934143 1799.335083,915.122009 1775.001465,895.046448 
	C1756.072998,879.429993 1738.654907,861.902771 1721.248657,844.539795 
	C1696.385010,819.737793 1672.147827,794.307739 1647.632568,769.156128 
	C1646.145752,767.630676 1644.566772,766.195007 1642.961182,764.383423 
	C1648.077026,766.448364 1653.572021,768.347656 1658.394287,771.333313 
	C1678.681274,783.893799 1698.604980,797.045105 1718.981567,809.454773 
	C1733.485352,818.287659 1748.144165,827.010864 1763.384399,834.449829 
	C1779.257568,842.197693 1796.299194,847.162964 1814.116699,847.910889 
	C1832.373291,848.677246 1850.666382,848.530273 1868.936279,849.040283 
	C1886.006470,849.516907 1903.067383,850.330811 1920.566162,850.998108 
	C1921.000000,852.714355 1921.000000,854.428711 1921.000000,856.571533 
z"/>
<path fill="#B9B9B9" opacity="1.000000" stroke="none" 
	d="
M892.002380,896.961914 
	C872.544983,894.187439 852.920227,892.253540 833.672974,888.423279 
	C810.215515,883.755249 787.780029,875.338684 766.241516,864.967468 
	C749.036865,856.683228 732.322632,847.380493 715.197510,838.250305 
	C715.947021,836.708069 716.617371,834.948669 717.874512,834.259705 
	C730.303345,827.447327 743.069031,821.218384 755.265015,814.020447 
	C769.351318,805.706909 782.880920,796.456360 796.796326,787.845520 
	C813.018311,777.807373 829.238586,767.748779 845.749878,758.200989 
	C862.866150,748.303284 879.884583,738.049683 897.771301,729.725586 
	C914.465210,721.956543 931.955994,715.527039 949.643555,710.395142 
	C961.651672,706.911072 974.580994,706.454163 987.150024,705.136536 
	C991.168457,704.715271 995.466980,705.412781 999.438843,706.398315 
	C1010.085022,709.039978 1021.021912,711.141541 1031.103516,715.265991 
	C1043.412842,720.301697 1055.017822,727.085938 1066.831665,733.296021 
	C1074.125977,737.130432 1081.309082,741.189453 1088.416870,745.361267 
	C1094.218872,748.766846 1099.776123,752.587463 1105.546021,756.050354 
	C1117.957031,763.499084 1130.632324,770.507080 1144.383667,775.162170 
	C1155.916992,779.066345 1167.654907,782.366394 1179.704346,785.994263 
	C1161.423706,800.381958 1142.875854,814.889648 1124.020874,828.986389 
	C1104.790527,843.363708 1084.161743,855.616272 1062.170898,865.163269 
	C1045.661865,872.330383 1028.733887,878.915894 1011.435059,883.776672 
	C992.720093,889.035095 973.390015,892.155884 954.257629,895.843140 
	C948.931213,896.869690 943.354980,896.599854 937.242432,896.697998 
	C935.727112,896.672791 934.862549,896.874329 933.998047,897.075806 
	C924.739685,897.342285 915.482483,897.682007 906.222229,897.830750 
	C903.433105,897.875549 900.635498,897.390076 897.208008,896.856689 
	C895.050354,896.697876 893.526367,896.829895 892.002380,896.961914 
z"/>
<path fill="#D9D9D9" opacity="1.000000" stroke="none" 
	d="
M1637.103271,760.440369 
	C1625.951172,757.403137 1614.902832,753.077942 1603.446167,750.922607 
	C1588.204346,748.055237 1572.684448,746.371948 1557.207642,745.145447 
	C1546.187012,744.272034 1534.994995,744.359375 1523.960693,745.150330 
	C1508.292358,746.273499 1492.642822,748.045837 1477.089111,750.268555 
	C1462.033447,752.420227 1447.050293,755.202698 1432.142456,758.235474 
	C1414.138672,761.898132 1396.273682,766.238220 1378.300903,770.061523 
	C1356.121094,774.779968 1334.014160,780.024353 1311.647949,783.628296 
	C1292.075684,786.781982 1272.207642,788.196350 1252.432007,789.948669 
	C1242.853394,790.797424 1233.134521,791.434204 1223.573364,790.783386 
	C1209.902222,789.852905 1196.317261,787.653992 1182.285156,785.918945 
	C1184.037720,783.635193 1185.990112,781.162476 1188.396240,779.264954 
	C1211.566528,760.992798 1234.426636,742.294434 1258.149780,724.765930 
	C1280.583130,708.190491 1304.446045,693.686096 1329.922241,682.118408 
	C1349.473633,673.240967 1369.749023,666.162109 1390.883911,662.401733 
	C1414.002441,658.288452 1437.267700,657.766846 1460.683960,661.550781 
	C1478.286987,664.395264 1495.300903,669.194946 1511.815186,675.415649 
	C1524.930908,680.356201 1537.490601,686.970215 1549.860352,693.649841 
	C1570.063110,704.559204 1588.889526,717.667358 1606.485352,732.398132 
	C1617.018555,741.216187 1626.868286,750.850830 1637.103271,760.440369 
z"/>
<path fill="#D9D9D9" opacity="1.000000" stroke="none" 
	d="
M892.233093,897.222534 
	C893.526367,896.829895 895.050354,896.697876 896.788818,896.852234 
	C895.490173,897.253479 893.976990,897.368286 892.233093,897.222534 
z"/>
<path fill="#D9D9D9" opacity="1.000000" stroke="none" 
	d="
M934.197876,897.303223 
	C934.862549,896.874329 935.727112,896.672791 936.793457,896.698242 
	C936.129395,897.126892 935.263550,897.328735 934.197876,897.303223 
z"/>
</svg>